<svg width="15" height="15" viewBox="0 0 15 15" fill="none" xmlns="http://www.w3.org/2000/svg">
<path d="M8.4375 3.4375C9.125 3.4375 9.6875 2.875 9.6875 2.1875C9.6875 1.5 9.125 0.9375 8.4375 0.9375C7.75 0.9375 7.1875 1.5 7.1875 2.1875C7.1875 2.875 7.75 3.4375 8.4375 3.4375ZM6.125 5.5625L4.525 13.6312C4.44375 14.0125 4.74375 14.375 5.1375 14.375H5.1875C5.48125 14.375 5.73125 14.175 5.8 13.8875L6.8125 9.375L8.125 10.625V13.75C8.125 14.0938 8.40625 14.375 8.75 14.375C9.09375 14.375 9.375 14.0938 9.375 13.75V10.225C9.375 9.88125 9.2375 9.55625 8.9875 9.31875L8.0625 8.4375L8.4375 6.5625C9.14183 7.3677 10.106 7.90065 11.1625 8.06875C11.5375 8.125 11.875 7.825 11.875 7.44375C11.875 7.1375 11.65 6.88125 11.3438 6.83125C10.3938 6.675 9.60625 6.1125 9.1875 5.375L8.5625 4.375C8.39371 4.1051 8.13439 3.90407 7.83093 3.80788C7.52748 3.71169 7.1997 3.72662 6.90625 3.85L4.5125 4.8625C4.28607 4.95928 4.09308 5.12048 3.95751 5.32605C3.82195 5.53162 3.74979 5.7725 3.75 6.01875V7.5C3.75 7.84375 4.03125 8.125 4.375 8.125C4.71875 8.125 5 7.84375 5 7.5V6L6.125 5.5625Z" fill="black"/>
</svg>
