<svg xmlns="http://www.w3.org/2000/svg" viewBox="0 0 382.67 383.49"><defs><style>.cls-1{fill:#fff;}</style></defs><g id="Livello_2" data-name="Livello 2"><g id="Livello_1-2" data-name="Livello 1"><path class="cls-1" d="M190.51.07C312.13-3.5,409,122.06,376.24,238.91,353.4,336.15,250,400.61,152.54,379.46-72,329-39.64,4.65,190.51.07Zm-.08,362.87v.28C316,362.8,399.7,230.68,345,117.34,283.26-10.17,102.2-12.12,37.68,114.06-20.46,226.15,64.11,364,190.43,362.94Z"/><path class="cls-1" d="M141.56,211.07c-10.64-.95-22.4,2.17-32.42-1.78-14.6-6.83-14.2-29.51.65-35.7,19-4.14,39.54-.47,59.08-1.65,1.68,0,2-.33,2-2q0-23.52,0-47C170,113.69,174,104.25,183,100.76c12.84-6,28.76,5.68,27.13,19.61q.07,24.6,0,49.19c0,1.68.49,2.41,2.33,2.41q24.9-.08,49.8,0c18.47-1.72,28.1,24,13.14,35-9,8.35-48.14,2.64-63,4.22-1.8,0-2.25.44-2.25,2.23q0,23.16,0,46.32c3.73,26.42-33,33.9-39,8.13-.31-18.15-.23-36.31-.23-54.46,0-1.87-.35-2.23-2.22-2.23H141.56Z"/></g></g></svg>