<svg width="9" height="9" viewBox="0 0 9 9" fill="none" xmlns="http://www.w3.org/2000/svg">
<path d="M8.62952 6.67228L8.6196 6.6822L8.6033 0.401967L8.60304 0.302485L8.50356 0.302227L1.98908 0.285324C1.90916 0.275475 1.82804 0.282415 1.75091 0.305729C1.67157 0.329712 1.59832 0.370461 1.5361 0.425217C1.47388 0.479973 1.42415 0.547458 1.39028 0.623103C1.35641 0.698748 1.33919 0.780788 1.33978 0.863669C1.34037 0.946549 1.35876 1.02833 1.39371 1.10349C1.42866 1.17864 1.47934 1.24541 1.54234 1.29927C1.60534 1.35313 1.67917 1.39283 1.75884 1.41568C1.83594 1.43779 1.91676 1.44361 1.99618 1.43283L6.63522 1.4521L0.331535 7.75579C0.223034 7.86429 0.16208 8.01145 0.162079 8.16489C0.16208 8.31833 0.223034 8.46549 0.331534 8.57399C0.440034 8.68249 0.587194 8.74345 0.740636 8.74345C0.894078 8.74345 1.04124 8.68249 1.14974 8.57399L7.45342 2.27031L7.47273 6.91659C7.47273 6.91661 7.47273 6.91663 7.47273 6.91665C7.47329 7.07014 7.53479 7.21712 7.64371 7.32528C7.75264 7.43344 7.90008 7.49391 8.0536 7.49336C8.20711 7.49282 8.35412 7.43132 8.46229 7.32238C8.57045 7.21345 8.63091 7.06601 8.63037 6.9125L8.62952 6.67228Z" fill="black" stroke="#355B3E" stroke-width="0.2"/>
</svg>
