<svg width="63" height="63" viewBox="0 0 63 63" fill="none" xmlns="http://www.w3.org/2000/svg">
<path d="M10.4998 26.25L8.64396 28.1059L6.78809 26.25L8.64396 24.3942L10.4998 26.25ZM55.1248 47.25C55.1248 47.9462 54.8483 48.6139 54.356 49.1062C53.8637 49.5985 53.196 49.875 52.4998 49.875C51.8036 49.875 51.136 49.5985 50.6437 49.1062C50.1514 48.6139 49.8748 47.9462 49.8748 47.25H55.1248ZM21.769 41.2309L8.64396 28.1059L12.3557 24.3942L25.4807 37.5192L21.769 41.2309ZM8.64396 24.3942L21.769 11.2692L25.4807 14.9809L12.3557 28.1059L8.64396 24.3942ZM10.4998 23.625H36.7498V28.875H10.4998V23.625ZM55.1248 42V47.25H49.8748V42H55.1248ZM36.7498 23.625C41.6232 23.625 46.2969 25.561 49.7429 29.007C53.1889 32.4529 55.1248 37.1267 55.1248 42H49.8748C49.8748 38.5191 48.492 35.1807 46.0306 32.7193C43.5692 30.2578 40.2308 28.875 36.7498 28.875V23.625Z" fill="black"/>
</svg>
