<?xml version="1.0" encoding="UTF-8" standalone="no"?>
<svg
   width="47.333099"
   height="45.166672"
   viewBox="0 0 47.333099 45.166672"
   fill="none"
   version="1.1"
   id="svg13"
   sodipodi:docname="favicon.svg"
   inkscape:export-filename="favicon.svg"
   inkscape:export-xdpi="96"
   inkscape:export-ydpi="96"
   inkscape:version="1.2.2 (b0a84865, 2022-12-01)"
   xmlns:inkscape="http://www.inkscape.org/namespaces/inkscape"
   xmlns:sodipodi="http://sodipodi.sourceforge.net/DTD/sodipodi-0.dtd"
   xmlns="http://www.w3.org/2000/svg"
   xmlns:svg="http://www.w3.org/2000/svg">
  <sodipodi:namedview
     id="namedview12"
     pagecolor="#505050"
     bordercolor="#eeeeee"
     borderopacity="1"
     inkscape:showpageshadow="0"
     inkscape:pageopacity="0"
     inkscape:pagecheckerboard="0"
     inkscape:deskcolor="#505050"
     showgrid="false"
     inkscape:zoom="5.2250917"
     inkscape:cx="23.635949"
     inkscape:cy="22.583336"
     inkscape:window-width="1427"
     inkscape:window-height="456"
     inkscape:window-x="0"
     inkscape:window-y="25"
     inkscape:window-maximized="0"
     inkscape:current-layer="svg13" />
  <defs
     id="defs17" />
  <path
     d="M 1.9998942,43.16667 17.166554,8.4999701 l 10.8333,25.9999999 4.3334,-13 13,21.6667 z M 37.749854,12.83337 c 1.4366,0 2.8144,-0.5707 3.8302,-1.5865 1.0158,-1.0159 1.5865,-2.3935999 1.5865,-3.8302099 0,-1.43658 -0.5707,-2.81433 -1.5865,-3.83016 -1.0158,-1.01582 -2.3936,-1.5865 -3.8302,-1.5865 -1.4366,0 -2.8143,0.57068 -3.8301,1.5865 -1.0158,1.01583 -1.5865,2.39358 -1.5865,3.83016 0,1.43661 0.5707,2.8143099 1.5865,3.8302099 1.0158,1.0158 2.3935,1.5865 3.8301,1.5865 z"
     stroke="#ffc400"
     stroke-width="4"
     stroke-linejoin="round"
     id="path9" />
</svg>
