<?xml version="1.0" encoding="utf-8"?>
<!-- Generator: Adobe Illustrator 24.1.1, SVG Export Plug-In . SVG Version: 6.00 Build 0)  -->
<svg version="1.1" id="Livello_1" xmlns="http://www.w3.org/2000/svg" xmlns:xlink="http://www.w3.org/1999/xlink" x="0px" y="0px"
	 viewBox="0 0 18 18" style="enable-background:new 0 0 18 18;" xml:space="preserve">
<style type="text/css">
	.st0{fill:none;}
	.st1{display:none;fill:none;stroke:#000000;stroke-width:0.3;stroke-opacity:0.2;}
	.st2{fill:#FFC400;}
	.st3{fill:#FFFFFF;}
	.st4{fill:none;stroke:#000000;stroke-width:0.3;}
</style>
<g>
	<path class="st0" d="M9,0.7l1.9,6.1l0,0.1H11h6.2l-5,3.8l-0.1,0.1l0,0.1l1.9,6.1l-5-3.8L9,13.1l-0.1,0.1l-5,3.8l1.9-6.1l0-0.1
		l-0.1-0.1l-5-3.8h6.2H7l0-0.1L9,0.7z"/>
	<path class="st1" d="M9,0.7l1.9,6.1l0,0.1H11h6.2l-5,3.8l-0.1,0.1l0,0.1l1.9,6.1l-5-3.8L9,13.1l-0.1,0.1l-5,3.8l1.9-6.1l0-0.1
		l-0.1-0.1l-5-3.8h6.2H7l0-0.1L9,0.7z"/>
	<g>
		<path class="st2" d="M9,0.8l0.1,12.5L9,13.3l-0.1,0.1l-5,3.8L5.8,11l0-0.1l-0.1-0.1l-5-3.8h6.2H7L7,7L9,0.8z"/>
		<path class="st3" d="M10.9,6.9l0,0.1H11h6.2l-5,3.8l-0.1,0.1l0,0.1l1.9,6.1l-5-3.8L9,13.3V0.8L10.9,6.9z"/>
	</g>
	<path class="st4" d="M9,0.7l1.9,6.1l0,0.1H11h6.2l-5,3.8l-0.1,0.1l0,0.1l1.9,6.1l-5-3.8L9,13.1l-0.1,0.1l-5,3.8l1.9-6.1l0-0.1
		l-0.1-0.1l-5-3.8h6.2H7l0-0.1L9,0.7z"/>
</g>
</svg>
