<svg xmlns="http://www.w3.org/2000/svg" viewBox="0 0 393.94 394.08"><defs><style>.cls-1{fill:#fff;}</style></defs><g id="Livello_2" data-name="Livello 2"><g id="Livello_1-2" data-name="Livello 1"><path class="cls-1" d="M49.3,213.32h-3c-8.47,0-17,0-25.42,0A19.83,19.83,0,0,1,4,204.88a20.12,20.12,0,0,1,1.74-26.14c5.5-5.65,11.33-11,17-16.44q21-20.22,42.09-40.42,19.08-18.28,38.2-36.53Q121.18,68,139.25,50.54,160.4,30.26,181.58,10c2.14-2,4.27-4.09,6.36-6.17a12.53,12.53,0,0,1,18-.08q21.75,21,43.65,41.91l42.84,41q26.34,25.22,52.66,50.45,21.06,20.19,42.06,40.44a20.54,20.54,0,0,1-7,34.66,22.63,22.63,0,0,1-7.78,1.06H344.84c-.06,1.25-.15,2.26-.15,3.27q0,34.08,0,68.16,0,42,0,84A24.46,24.46,0,0,1,337,387.18,23.58,23.58,0,0,1,320.37,394c-23.27.1-46.54.05-69.8,0-6,0-12.16-4.34-12.63-12.42-.1-1.6-.06-3.2-.06-4.8q0-49.68,0-99.37c0-1,0-1.92-.05-2.87a3.82,3.82,0,0,0-3.91-3.74c-.55,0-1.11,0-1.67,0H161.71c-.56,0-1.12,0-1.68,0a3.94,3.94,0,0,0-3.94,3.73c-.1,1-.07,2.08-.07,3.12v102a15.35,15.35,0,0,1-1.1,6.79c-2.36,5-6.29,7.53-11.75,7.55-11.83.06-23.67,0-35.5,0-11.12,0-22.23,0-33.34,0A24.52,24.52,0,0,1,57,387.18a23.91,23.91,0,0,1-7.63-16.51c-.11-1.83-.06-3.68-.06-5.52V213.32Z"/></g></g></svg>