<svg width="350" height="52" viewBox="0 0 350 52" fill="none" xmlns="http://www.w3.org/2000/svg">
<path d="M4.33301 45.5L19.4997 10.8334L30.333 36.8334L34.6663 23.8334L47.6663 45.5H4.33301ZM40.083 15.1667C41.5196 15.1667 42.8973 14.596 43.9132 13.5802C44.929 12.5644 45.4997 11.1866 45.4997 9.75004C45.4997 8.31345 44.929 6.9357 43.9132 5.91988C42.8973 4.90406 41.5196 4.33337 40.083 4.33337C38.6464 4.33337 37.2687 4.90406 36.2528 5.91988C35.237 6.9357 34.6663 8.31345 34.6663 9.75004C34.6663 11.1866 35.237 12.5644 36.2528 13.5802C37.2687 14.596 38.6464 15.1667 40.083 15.1667Z" stroke="#FFC400" stroke-width="4" stroke-linejoin="round"/>
<path d="M87.0511 29.9091C87.0511 32.8239 86.4844 35.2827 85.3509 37.2855C84.2173 39.2798 82.6875 40.7926 80.7614 41.8239C78.8352 42.8466 76.6875 43.358 74.3182 43.358C71.9318 43.358 69.7756 42.8423 67.8494 41.8111C65.9318 40.7713 64.4062 39.2543 63.2727 37.2599C62.1477 35.2571 61.5852 32.8068 61.5852 29.9091C61.5852 26.9943 62.1477 24.5398 63.2727 22.5455C64.4062 20.5426 65.9318 19.0298 67.8494 18.0071C69.7756 16.9759 71.9318 16.4602 74.3182 16.4602C76.6875 16.4602 78.8352 16.9759 80.7614 18.0071C82.6875 19.0298 84.2173 20.5426 85.3509 22.5455C86.4844 24.5398 87.0511 26.9943 87.0511 29.9091ZM79.7386 29.9091C79.7386 28.3409 79.5298 27.0199 79.1122 25.946C78.7031 24.8636 78.0938 24.0455 77.2841 23.4915C76.483 22.929 75.4943 22.6477 74.3182 22.6477C73.142 22.6477 72.1491 22.929 71.3395 23.4915C70.5384 24.0455 69.929 24.8636 69.5114 25.946C69.1023 27.0199 68.8977 28.3409 68.8977 29.9091C68.8977 31.4773 69.1023 32.8026 69.5114 33.8849C69.929 34.9588 70.5384 35.777 71.3395 36.3395C72.1491 36.8935 73.142 37.1705 74.3182 37.1705C75.4943 37.1705 76.483 36.8935 77.2841 36.3395C78.0938 35.777 78.7031 34.9588 79.1122 33.8849C79.5298 32.8026 79.7386 31.4773 79.7386 29.9091ZM107.495 34.4091V23.3636H114.552V43H107.853V39.267H107.648C107.222 40.5199 106.477 41.5 105.411 42.2074C104.346 42.9062 103.08 43.2557 101.614 43.2557C100.242 43.2557 99.0405 42.9403 98.0093 42.3097C96.9865 41.679 96.1897 40.8097 95.6187 39.7017C95.0562 38.5937 94.7706 37.3239 94.7621 35.892V23.3636H101.819V34.4091C101.827 35.3807 102.075 36.1435 102.56 36.6974C103.055 37.2514 103.745 37.5284 104.631 37.5284C105.22 37.5284 105.727 37.4048 106.153 37.1577C106.587 36.902 106.92 36.544 107.15 36.0838C107.389 35.6151 107.504 35.0568 107.495 34.4091ZM134.171 23.3636V28.4773H121.234V23.3636H134.171ZM123.739 18.6591H130.796V36.6847C130.796 36.9574 130.843 37.1875 130.937 37.375C131.031 37.554 131.176 37.6903 131.372 37.7841C131.568 37.8693 131.819 37.9119 132.126 37.9119C132.339 37.9119 132.586 37.8864 132.867 37.8352C133.157 37.7841 133.37 37.7415 133.506 37.7074L134.529 42.6676C134.214 42.7614 133.762 42.8764 133.174 43.0128C132.595 43.1491 131.904 43.2386 131.103 43.2812C129.484 43.3665 128.124 43.2003 127.025 42.7827C125.926 42.3565 125.099 41.6875 124.545 40.7756C123.991 39.8636 123.722 38.7216 123.739 37.3494V18.6591ZM148.268 43.2557C146.87 43.2557 145.583 42.8892 144.407 42.1562C143.239 41.4233 142.302 40.3111 141.595 38.8196C140.896 37.3281 140.546 35.4489 140.546 33.1818C140.546 30.8125 140.913 28.8864 141.646 27.4034C142.387 25.9205 143.342 24.8338 144.509 24.1435C145.685 23.4531 146.921 23.108 148.217 23.108C149.188 23.108 150.041 23.2784 150.774 23.6193C151.507 23.9517 152.12 24.3991 152.614 24.9616C153.109 25.5156 153.484 26.125 153.739 26.7898H153.842V16.8182H160.899V43H153.893V39.7784H153.739C153.467 40.4432 153.075 41.0398 152.563 41.5682C152.06 42.0881 151.447 42.5014 150.722 42.8082C150.007 43.1065 149.188 43.2557 148.268 43.2557ZM150.876 37.8352C151.524 37.8352 152.078 37.6477 152.538 37.2727C153.007 36.8892 153.364 36.3523 153.612 35.6619C153.867 34.9631 153.995 34.1364 153.995 33.1818C153.995 32.2102 153.867 31.3793 153.612 30.6889C153.364 29.9901 153.007 29.4574 152.538 29.0909C152.078 28.7159 151.524 28.5284 150.876 28.5284C150.228 28.5284 149.674 28.7159 149.214 29.0909C148.762 29.4574 148.413 29.9901 148.166 30.6889C147.927 31.3793 147.808 32.2102 147.808 33.1818C147.808 34.1534 147.927 34.9886 148.166 35.6875C148.413 36.3778 148.762 36.9105 149.214 37.2855C149.674 37.652 150.228 37.8352 150.876 37.8352ZM178.143 43.358C176.013 43.358 174.189 42.9361 172.672 42.0923C171.155 41.2401 169.991 40.0554 169.182 38.5384C168.372 37.0128 167.967 35.2443 167.967 33.233C167.967 31.2216 168.372 29.4574 169.182 27.9403C169.991 26.4148 171.155 25.2301 172.672 24.3864C174.189 23.5341 176.013 23.108 178.143 23.108C180.274 23.108 182.098 23.5341 183.615 24.3864C185.132 25.2301 186.295 26.4148 187.105 27.9403C187.915 29.4574 188.319 31.2216 188.319 33.233C188.319 35.2443 187.915 37.0128 187.105 38.5384C186.295 40.0554 185.132 41.2401 183.615 42.0923C182.098 42.9361 180.274 43.358 178.143 43.358ZM178.194 38.142C178.791 38.142 179.307 37.9418 179.741 37.5412C180.176 37.1406 180.513 36.5696 180.751 35.8281C180.99 35.0866 181.109 34.2045 181.109 33.1818C181.109 32.1506 180.99 31.2685 180.751 30.5355C180.513 29.794 180.176 29.223 179.741 28.8224C179.307 28.4219 178.791 28.2216 178.194 28.2216C177.564 28.2216 177.023 28.4219 176.571 28.8224C176.119 29.223 175.774 29.794 175.535 30.5355C175.297 31.2685 175.177 32.1506 175.177 33.1818C175.177 34.2045 175.297 35.0866 175.535 35.8281C175.774 36.5696 176.119 37.1406 176.571 37.5412C177.023 37.9418 177.564 38.142 178.194 38.142ZM204.963 43.358C202.833 43.358 201.009 42.9361 199.492 42.0923C197.975 41.2401 196.811 40.0554 196.002 38.5384C195.192 37.0128 194.787 35.2443 194.787 33.233C194.787 31.2216 195.192 29.4574 196.002 27.9403C196.811 26.4148 197.975 25.2301 199.492 24.3864C201.009 23.5341 202.833 23.108 204.963 23.108C207.094 23.108 208.918 23.5341 210.435 24.3864C211.952 25.2301 213.115 26.4148 213.925 27.9403C214.735 29.4574 215.139 31.2216 215.139 33.233C215.139 35.2443 214.735 37.0128 213.925 38.5384C213.115 40.0554 211.952 41.2401 210.435 42.0923C208.918 42.9361 207.094 43.358 204.963 43.358ZM205.014 38.142C205.611 38.142 206.127 37.9418 206.561 37.5412C206.996 37.1406 207.333 36.5696 207.571 35.8281C207.81 35.0866 207.929 34.2045 207.929 33.1818C207.929 32.1506 207.81 31.2685 207.571 30.5355C207.333 29.794 206.996 29.223 206.561 28.8224C206.127 28.4219 205.611 28.2216 205.014 28.2216C204.384 28.2216 203.843 28.4219 203.391 28.8224C202.939 29.223 202.594 29.794 202.355 30.5355C202.117 31.2685 201.997 32.1506 201.997 33.1818C201.997 34.2045 202.117 35.0866 202.355 35.8281C202.594 36.5696 202.939 37.1406 203.391 37.5412C203.843 37.9418 204.384 38.142 205.014 38.142ZM222.323 43V23.3636H229.175V27.0966H229.38C229.738 25.7159 230.305 24.706 231.08 24.0668C231.864 23.4276 232.78 23.108 233.829 23.108C234.136 23.108 234.438 23.1335 234.736 23.1847C235.043 23.2273 235.337 23.2912 235.619 23.3764V29.3977C235.269 29.2784 234.839 29.1889 234.327 29.1293C233.816 29.0696 233.377 29.0398 233.011 29.0398C232.32 29.0398 231.698 29.1974 231.144 29.5128C230.599 29.8196 230.168 30.2543 229.853 30.8168C229.538 31.3707 229.38 32.0227 229.38 32.7727V43H222.323ZM239.395 22.5455V16.8182H262.151V22.5455H254.276V43H247.27V22.5455H239.395ZM267.209 43V23.3636H274.061V27.0966H274.266C274.624 25.7159 275.191 24.706 275.966 24.0668C276.75 23.4276 277.667 23.108 278.715 23.108C279.022 23.108 279.324 23.1335 279.622 23.1847C279.929 23.2273 280.223 23.2912 280.505 23.3764V29.3977C280.155 29.2784 279.725 29.1889 279.213 29.1293C278.702 29.0696 278.263 29.0398 277.897 29.0398C277.206 29.0398 276.584 29.1974 276.03 29.5128C275.485 29.8196 275.054 30.2543 274.739 30.8168C274.424 31.3707 274.266 32.0227 274.266 32.7727V43H267.209ZM287.139 43V23.3636H294.195V43H287.139ZM290.667 21.3182C289.712 21.3182 288.894 21.0028 288.212 20.3722C287.531 19.7415 287.19 18.983 287.19 18.0966C287.19 17.2102 287.531 16.4517 288.212 15.821C288.894 15.1903 289.712 14.875 290.667 14.875C291.63 14.875 292.448 15.1903 293.121 15.821C293.803 16.4517 294.144 17.2102 294.144 18.0966C294.144 18.983 293.803 19.7415 293.121 20.3722C292.448 21.0028 291.63 21.3182 290.667 21.3182ZM302.009 43V16.8182H309.065V26.7898H309.168C309.423 26.125 309.798 25.5156 310.293 24.9616C310.787 24.3991 311.401 23.9517 312.134 23.6193C312.867 23.2784 313.719 23.108 314.69 23.108C315.986 23.108 317.217 23.4531 318.385 24.1435C319.561 24.8338 320.516 25.9205 321.249 27.4034C321.99 28.8864 322.361 30.8125 322.361 33.1818C322.361 35.4489 322.007 37.3281 321.3 38.8196C320.601 40.3111 319.663 41.4233 318.487 42.1562C317.32 42.8892 316.037 43.2557 314.639 43.2557C313.719 43.2557 312.896 43.1065 312.172 42.8082C311.456 42.5014 310.842 42.0881 310.331 41.5682C309.828 41.0398 309.44 40.4432 309.168 39.7784H309.014V43H302.009ZM308.912 33.1818C308.912 34.1364 309.036 34.9631 309.283 35.6619C309.538 36.3523 309.896 36.8892 310.357 37.2727C310.825 37.6477 311.384 37.8352 312.031 37.8352C312.679 37.8352 313.229 37.652 313.68 37.2855C314.141 36.9105 314.49 36.3778 314.729 35.6875C314.976 34.9886 315.1 34.1534 315.1 33.1818C315.1 32.2102 314.976 31.3793 314.729 30.6889C314.49 29.9901 314.141 29.4574 313.68 29.0909C313.229 28.7159 312.679 28.5284 312.031 28.5284C311.384 28.5284 310.825 28.7159 310.357 29.0909C309.896 29.4574 309.538 29.9901 309.283 30.6889C309.036 31.3793 308.912 32.2102 308.912 33.1818ZM339.043 43.358C336.946 43.358 335.14 42.9574 333.623 42.1562C332.114 41.3466 330.951 40.1875 330.133 38.679C329.323 37.1619 328.918 35.3466 328.918 33.233C328.918 31.2045 329.327 29.4318 330.145 27.9148C330.964 26.3977 332.118 25.2173 333.61 24.3736C335.101 23.5298 336.861 23.108 338.89 23.108C340.373 23.108 341.715 23.3381 342.917 23.7983C344.118 24.2585 345.145 24.9276 345.998 25.8054C346.85 26.6747 347.506 27.7315 347.966 28.9759C348.427 30.2202 348.657 31.6222 348.657 33.1818V34.8182H331.117V30.9318H342.162C342.154 30.3693 342.009 29.875 341.728 29.4489C341.455 29.0142 341.084 28.6776 340.616 28.4389C340.155 28.1918 339.631 28.0682 339.043 28.0682C338.472 28.0682 337.948 28.1918 337.471 28.4389C336.993 28.6776 336.61 29.0099 336.32 29.4361C336.039 29.8622 335.89 30.3608 335.873 30.9318V35.125C335.873 35.7557 336.005 36.3182 336.269 36.8125C336.533 37.3068 336.912 37.6946 337.407 37.9759C337.901 38.2571 338.498 38.3977 339.196 38.3977C339.682 38.3977 340.125 38.3295 340.526 38.1932C340.935 38.0568 341.285 37.8608 341.574 37.6051C341.864 37.3409 342.077 37.0256 342.214 36.6591H348.657C348.435 38.0227 347.911 39.2074 347.084 40.2131C346.258 41.2102 345.162 41.9858 343.799 42.5398C342.444 43.0852 340.858 43.358 339.043 43.358Z" fill="#FFC400"/>
</svg>
