<svg xmlns="http://www.w3.org/2000/svg" viewBox="0 0 74.67 74.68"><defs><style>.cls-1{fill:#fff;}</style></defs><g id="Livello_2" data-name="Livello 2"><g id="Livello_1-2" data-name="Livello 1"><path class="cls-1" d="M37.3,74.68A37.34,37.34,0,1,1,74.67,37.31,37.3,37.3,0,0,1,37.3,74.68Zm24.88-15.3A19.2,19.2,0,0,0,45.45,48.44c-5.31-.09-10.64-.15-16,0-7.33.22-12.83,3.68-16.57,10a1.14,1.14,0,0,0,.18,1.65C22.66,69.59,34,72.71,47,69.1A31.44,31.44,0,0,0,62.18,59.38ZM22.49,27.09A14.84,14.84,0,1,0,37.4,12.25,14.82,14.82,0,0,0,22.49,27.09Z"/></g></g></svg>