<svg xmlns="http://www.w3.org/2000/svg" viewBox="0 0 357.44 357.53"><defs><style>.cls-1{fill:#fff;}</style></defs><g id="Livello_2" data-name="Livello 2"><g id="Livello_1-2" data-name="Livello 1"><path class="cls-1" d="M357.44,327.09,327,357.53Q289.19,319.72,251.3,282c-8.41-9.49-19.52-17.59-26.59-27.81-.92-5.38,1.89-12.5-1.66-16.92-1.67-1.07-3.1-4.32-5.29-3.86a151.9,151.9,0,0,1-28.18,18.94c-39.62,19.35-88.3,16.83-125.92-6.07-71.84-42-85.72-146.7-27-205.7C92.86-20,196.49-11.38,242.22,57.35c26.29,37.94,30.77,89.71,10.41,131.29a128.33,128.33,0,0,1-19.3,29.15c-.11,2.72,3.83,4.42,5.38,6.55,5.46,1.34,12-1,17.3,1,7.92,7.94,15.81,15.92,23.82,23.77C305.58,275.24,332,300.74,357.44,327.09ZM125.9,40.67C11.13,49.46,13.37,221.51,132,224.53,256.62,222.14,254.1,37.09,125.9,40.67Z"/></g></g></svg>