<svg width="18" height="18" viewBox="0 0 18 18" fill="none" xmlns="http://www.w3.org/2000/svg">
<path d="M8.8001 0.499748L10.7225 6.60936L10.7556 6.71434H10.8656H17.0999L12.0522 10.5013L11.9672 10.5651L11.9991 10.6663L13.9246 16.7858L8.89012 13.0087L8.8001 12.9412L8.71008 13.0087L3.67556 16.7858L5.60109 10.6663L5.63296 10.5651L5.54802 10.5013L0.500266 6.71434H6.73457H6.84462L6.87765 6.60936L8.8001 0.499748Z" fill="#FFC400"/>
<path d="M8.8001 0.499748L10.7225 6.60936L10.7556 6.71434H10.8656H17.0999L12.0522 10.5013L11.9672 10.5651L11.9991 10.6663L13.9246 16.7858L8.89012 13.0087L8.8001 12.9412L8.71008 13.0087L3.67556 16.7858L5.60109 10.6663L5.63296 10.5651L5.54802 10.5013L0.500266 6.71434H6.73457H6.84462L6.87765 6.60936L8.8001 0.499748Z" stroke="black" stroke-width="0.3"/>
<path d="M8.8001 0.499748L10.7225 6.60936L10.7556 6.71434H10.8656H17.0999L12.0522 10.5013L11.9672 10.5651L11.9991 10.6663L13.9246 16.7858L8.89012 13.0087L8.8001 12.9412L8.71008 13.0087L3.67556 16.7858L5.60109 10.6663L5.63296 10.5651L5.54802 10.5013L0.500266 6.71434H6.73457H6.84462L6.87765 6.60936L8.8001 0.499748Z" stroke="black" stroke-opacity="0.2" stroke-width="0.3"/>
</svg>
