<svg width="15" height="15" viewBox="0 0 15 15" fill="none" xmlns="http://www.w3.org/2000/svg">
<path d="M7.5 12.5C6.33968 12.5 5.22688 12.0391 4.40641 11.2186C3.58594 10.3981 3.125 9.28532 3.125 8.125C3.125 6.96468 3.58594 5.85188 4.40641 5.03141C5.22688 4.21094 6.33968 3.75 7.5 3.75C8.66032 3.75 9.77312 4.21094 10.5936 5.03141C11.4141 5.85188 11.875 6.96468 11.875 8.125C11.875 9.28532 11.4141 10.3981 10.5936 11.2186C9.77312 12.0391 8.66032 12.5 7.5 12.5ZM11.8938 4.61875L12.7812 3.73125C12.5 3.4125 12.2188 3.125 11.9 2.85L11.0125 3.75C10.0438 2.9625 8.825 2.5 7.5 2.5C6.00816 2.5 4.57742 3.09263 3.52252 4.14752C2.46763 5.20242 1.875 6.63316 1.875 8.125C1.875 9.61684 2.46763 11.0476 3.52252 12.1025C4.57742 13.1574 6.00816 13.75 7.5 13.75C10.625 13.75 13.125 11.2312 13.125 8.125C13.125 6.8 12.6625 5.58125 11.8938 4.61875ZM6.875 8.75H8.125V5H6.875M9.375 0.625H5.625V1.875H9.375V0.625Z" fill="black"/>
</svg>
